<?xml version="1.0" encoding="utf-8"?>
<!-- Generator: Adobe Illustrator 18.1.1, SVG Export Plug-In . SVG Version: 6.00 Build 0)  -->
<svg version="1.1" id="Layer_1" xmlns="http://www.w3.org/2000/svg" xmlns:xlink="http://www.w3.org/1999/xlink" x="0px" y="0px"
	 viewBox="-217.3 -347.5 1416.1 1416.1" enable-background="new -217.3 -347.5 1416.1 1416.1" xml:space="preserve">
<circle fill="#127BF9" cx="490.8" cy="360.6" r="708.1"/>
<g>
	<path fill="#FFFFFF" d="M197.9-195.6c-35.7,9.7-58.7,45.8-51.6,81.1c4.9,24.1,18.7,41.7,41,52.1c8.3,3.9,18.1,5.9,29.2,5.9
		c19,0,35.4-6.9,49.4-21c13-13,19.6-27.4,20.7-45.5c1.3-20.1-6.4-40.3-20.7-54.3c-9.5-9.4-22.3-16.4-34.8-19.1
		C223.1-198.1,205.5-197.7,197.9-195.6z"/>
	<path fill="#FFFFFF" d="M154.2-25.6c-2.9,0.5-6,1.1-6.8,1.5c-1.4,0.5-1.5,32.9-1.2,303.3l0.2,302.8l2.3,9.7
		c6.7,29,19.1,51.7,39.2,71.8c25.1,25.2,56.3,39.4,93.7,43c6.1,0.5,11.8,0.7,12.7,0.4c1.5-0.6,1.6-20.2,1.6-227.5V252.5h60h60v219.7
		c0,133.6,0.4,223.7,1,229.8c3.6,37.6,17.6,67.2,43.9,93.6c27.3,27.3,58.5,41.3,98.9,44.4l7.2,0.5v-294v-294h131.5h131.5v-73v-73
		H563H296l-0.6-5.8c-2.8-26.5-7.5-42.3-18.3-60.7c-22.8-39-63.8-64.6-105.7-66C164.8-26.2,157-26,154.2-25.6z M771.1,128.5
		c18.8,5.8,34.6,23.8,37.8,43.1c3.2,19.1-3,37.3-17.2,50.4c-21.9,20.3-54.7,19.2-75.2-2.5c-17.5-18.6-20.5-45.1-7.4-66.7
		c6.6-10.8,18.8-20.6,30.2-24.3C747.8,125.8,762.5,125.8,771.1,128.5z"/>
	<path fill="#FFFFFF" d="M683.9,608.1v310.6l9.3-0.7c41.1-3,79-22.5,103.8-53.3c11.6-14.4,18.9-27.9,24.9-46.1
		c7.5-22.7,7-2.4,7-275.8V297.5h-72.5h-72.5V608.1z"/>
</g>
</svg>
